<svg width="69" height="55" viewBox="0 0 69 55" fill="none" xmlns="http://www.w3.org/2000/svg">
<path d="M21.1245 17.483C21.1245 17.483 19.8205 11.1489 21.0436 8.75332C22.2666 6.35776 25.511 6.97695 25.8142 8.13413C26.1175 9.29131 26.2792 12.1538 27.1989 12.2249C28.1187 12.2959 29.1194 12.7629 28.8869 13.4633C28.6544 14.1637 27.118 14.5494 27.0372 14.8539C26.9563 15.1584 27.573 18.1022 27.573 18.1022L21.1245 17.483Z" fill="#8157E4"/>
<path d="M23.7018 12.5903C23.981 12.5903 24.2072 12.1404 24.2072 11.5854C24.2072 11.0304 23.981 10.5804 23.7018 10.5804C23.4228 10.5804 23.1965 11.0304 23.1965 11.5854C23.1965 12.1404 23.4228 12.5903 23.7018 12.5903Z" fill="#121214"/>
<path d="M25.3491 12.8847C25.6283 12.8847 25.8545 12.4348 25.8545 11.8798C25.8545 11.3248 25.6283 10.8749 25.3491 10.8749C25.0699 10.8749 24.8438 11.3248 24.8438 11.8798C24.8438 12.4348 25.0699 12.8847 25.3491 12.8847Z" fill="#121214"/>
<path d="M23.3479 9.82922C23.8938 9.7074 24.9045 9.59574 25.7738 10.0931C25.8647 10.1439 25.9658 10.0322 25.895 9.95103C25.4504 9.39273 24.5306 8.63144 23.2671 9.65665C23.1862 9.71756 23.257 9.84952 23.3479 9.82922Z" fill="#121214"/>
<path d="M25.6929 14.2651C25.7232 14.1737 25.6626 14.0722 25.5717 14.0621C25.137 13.9808 23.9748 13.7169 23.055 13.1688C23.055 13.1688 23.2066 12.7831 22.8225 13.0165C22.4385 13.25 23.2369 16.0719 24.743 15.5644C25.2684 15.3817 25.5717 14.6102 25.6929 14.2651Z" fill="#121214"/>
<path d="M22.2766 7.90071C22.2766 7.90071 21.4276 6.12433 18.5874 6.12433C15.7472 6.12433 13.1193 11.7681 10.5116 11.1489C7.89378 10.5297 9.89504 12.7731 11.3606 12.7731C11.3606 12.7731 11.2798 13.24 10.6632 13.4734C10.0467 13.7069 11.8154 14.8641 13.281 14.0114C13.281 14.0114 13.2001 14.3972 12.7453 14.9352C12.2804 15.4731 13.746 15.9401 14.595 14.4682C15.444 12.9964 17.5969 9.05789 20.2146 9.37257C22.8225 9.67708 22.2766 7.90071 22.2766 7.90071Z" fill="#8157E4"/>
<path d="M35.0928 32.6685C35.0928 32.6685 40.6518 38.8604 39.9444 43.0222C39.2368 47.184 34.5874 46.4735 34.5874 46.4735L30.6455 47.2855L29.1294 47.4886C29.1294 47.4886 30.1401 45.2554 28.624 42.2102L33.7788 40.9921L29.9684 35.5005L35.0928 32.6685Z" fill="white"/>
<path d="M19.2848 39.9262C20.0227 41.3777 20.71 43.1135 20.9526 44.8291C20.9728 44.9812 20.7606 45.0422 20.6998 44.9C20.3057 44.0169 19.6082 42.7379 18.82 42.606C18.82 42.606 10.9361 42.403 8.10606 42.3015C5.276 42.2 5.17492 51.5386 9.72324 52.7567C14.2716 53.9748 13.9683 51.4372 13.9683 51.4372C13.9683 51.4372 11.7346 50.8586 10.7845 49.2445C10.7138 49.1228 10.8654 48.9806 10.9765 49.072C11.8458 49.742 13.8875 51.0818 16.384 51.2341C19.7194 51.4372 26.5924 49.8131 28.4118 46.7677C29.6853 44.6362 27.0978 40.6165 25.4302 38.3934C25.8647 38.637 26.3298 38.9517 26.8047 39.378C27.0069 39.5608 27.2797 39.6319 27.5425 39.5912L35.5982 38.2413L33.6777 33.7342C31.5856 34.5564 29.463 36.0284 26.8047 37.4291C23.3177 39.2664 20.3866 39.7943 19.2848 39.9262Z" fill="white"/>
<path d="M10.9867 49.0821C11.8559 49.7521 13.8976 51.0919 16.3941 51.2442C16.5357 51.2543 16.6872 51.2543 16.8389 51.2644C13.6348 48.605 13.8774 44.0981 14.0795 42.4942C11.866 42.4333 9.43013 42.3624 8.10606 42.3116C5.276 42.2101 5.17492 51.5487 9.72324 52.7668C14.2716 53.985 13.9683 51.4471 13.9683 51.4471C13.9683 51.4471 11.7346 50.8687 10.7845 49.2546C10.7138 49.1227 10.8654 48.9907 10.9867 49.0821Z" fill="#464650"/>
<path d="M58.9967 9.16943C57.5717 7.48441 55.54 6.27647 53.3366 5.4035C53.084 6.03285 52.5786 6.57084 51.9014 6.69265C51.7094 6.7231 51.4163 6.86522 51.214 6.88551C51.1635 6.91597 51.1129 6.94642 51.0624 6.97688C51.0523 6.98701 51.0423 6.98702 51.0321 6.99717C51.0018 7.02763 50.931 7.08852 50.8603 7.11898C50.7289 7.23064 50.6076 7.35244 50.4762 7.47425C50.3145 7.63667 50.1528 7.79908 50.0011 7.97165C49.981 7.99195 49.9608 8.0224 49.9405 8.05284C49.9102 8.11375 49.8799 8.18481 49.8394 8.24572C49.7991 8.37767 49.7485 8.49948 49.7182 8.63143C49.698 8.73296 49.6777 8.83446 49.6576 8.93597C49.6474 9.09838 49.6171 9.26078 49.6071 9.42319C49.5868 9.83938 49.5766 10.2556 49.5868 10.6616C49.5969 11.4533 49.6272 12.2451 49.5666 13.0369C49.5565 13.2297 49.516 13.4226 49.4654 13.5952C55.8028 15.0873 55.3783 19.3709 48.7276 20.2844C40.6418 21.401 31.7473 18.3558 31.7473 18.3558C31.7473 18.3558 19.4668 14.8538 13.4023 18.102C7.33788 21.3503 4.36632 33.1352 11.4819 37.5915C20.4269 43.1947 29.2811 34.1809 35.871 33.5616C35.3757 32.7292 35.6385 31.5213 36.255 30.8412C36.427 30.6483 36.6695 30.496 36.9323 30.3844C36.902 30.3439 36.8615 30.2931 36.8312 30.2524C36.8009 30.2323 36.71 30.1205 36.6292 30.0393C36.4673 29.8668 36.3056 29.7044 36.1339 29.5521C35.5071 28.9837 34.7289 28.4863 34.3347 27.7047C34.0113 27.055 33.9405 26.3953 34.2236 25.7151C34.4661 25.1467 35.0018 24.5072 35.6588 24.426C35.7699 24.4158 35.8811 24.3956 35.9822 24.3853C35.7801 24.3752 35.5779 24.3549 35.3757 24.3549L35.3454 23.9997C35.3454 23.9997 34.0315 22.3145 33.3846 20.995C33.3342 20.9037 33.4654 20.8225 33.5362 20.9037C34.2641 21.8578 35.7902 23.7561 36.7606 24.2026C61.5237 25.6136 64.0505 15.1584 58.9967 9.16943ZM33.4857 24.4158C31.6967 24.5985 29.7561 25.106 27.6639 26.0196C20.5886 29.0953 13.2406 29.349 11.6133 26.9637C11.5527 26.8825 11.6537 26.7809 11.7346 26.8418C11.9772 27.0245 12.3208 27.2174 12.7251 27.2377C12.7656 27.2377 12.806 27.2073 12.8161 27.1667C12.897 26.6389 13.4832 23.553 15.5855 21.8578C15.6765 21.7868 15.7776 21.9085 15.7068 21.9897C15.3227 22.3959 14.8881 22.954 14.6455 23.6038C14.5546 23.8373 14.5647 24.091 14.6759 24.3041C15.1206 25.2888 16.4649 28.1818 16.6063 28.1919C17.4959 28.2527 19.7599 28.1615 23.631 27.1261C27.7347 26.0298 30.5243 24.1012 33.4857 24.4158Z" fill="white"/>
<path d="M31.4744 35.4194C31.0397 35.4498 30.8174 35.9777 31.1105 36.3025C32.0404 37.348 33.2331 39.4492 32.1617 42.6162C30.7466 46.7984 6.13517 53.173 0.121279 54.6752C-0.0606539 54.726 -0.0303417 55 0.161699 55L35.7902 54.8985C35.9318 54.8985 36.0632 54.8783 36.1946 54.8376C38.8123 54.0154 62.7972 45.763 67.2242 40.9921C70.8729 37.0739 65.3948 34.2925 63.5451 33.5009C63.1914 33.3486 62.8072 33.2877 62.4232 33.3182L31.4744 35.4194Z" fill="url(#paint0_radial_1817_3)"/>
<path d="M33.3846 37.6929C33.4351 37.8045 33.4654 37.8553 33.5059 37.9669C34.5873 37.8857 35.1332 37.8452 36.2348 37.7538C36.1842 37.6524 36.1642 37.5914 36.1136 37.49C35.0118 37.5813 34.4661 37.622 33.3846 37.6929Z" fill="#04D361"/>
<path d="M35.1231 38.3935C35.1636 38.4949 35.1737 38.5457 35.2142 38.6573C35.5275 38.6269 35.6892 38.6168 36.0126 38.5864C35.9823 38.4848 35.9621 38.4341 35.9216 38.3325C35.5982 38.3529 35.4365 38.3732 35.1231 38.3935Z" fill="#04D361"/>
<path d="M36.3561 38.292C36.3965 38.3934 36.4067 38.4442 36.447 38.5457C37.478 38.4544 38.0036 38.4037 39.075 38.3021C39.0346 38.2006 39.0244 38.1601 38.9841 38.0585C37.9126 38.1498 37.3972 38.2006 36.3561 38.292Z" fill="#6F33EA"/>
<path d="M39.5199 38.0078C39.5604 38.1093 39.5805 38.1499 39.621 38.2514C40.9349 38.1297 42.2389 38.0078 43.5528 37.8758C43.5022 37.7846 43.4819 37.7439 43.4316 37.6526C42.1276 37.7642 40.8237 37.8859 39.5199 38.0078Z" fill="#6F33EA"/>
<path d="M34.062 39.2967C34.0923 39.3982 34.1024 39.449 34.1226 39.5505C34.4258 39.5199 34.5875 39.4997 34.8908 39.4693C34.8705 39.3678 34.8605 39.317 34.83 39.2155C34.5168 39.2459 34.3652 39.2662 34.062 39.2967Z" fill="#04D361"/>
<path d="M35.2645 39.1751C35.2848 39.2766 35.305 39.3274 35.3253 39.4288C36.336 39.3274 36.8514 39.2664 37.9127 39.165C37.8924 39.0736 37.8824 39.0228 37.8521 38.9213C36.8009 39.0228 36.2855 39.0736 35.2645 39.1751Z" fill="#6F33EA"/>
<path d="M43.0979 38.3832C43.1384 38.4746 43.1485 38.5151 43.1788 38.6066C44.1188 38.505 45.0688 38.4035 46.0089 38.302C45.9684 38.2208 45.9483 38.17 45.8977 38.0888C44.7757 38.2208 44.2097 38.2715 43.0979 38.3832Z" fill="#04D361"/>
<path d="M38.3978 38.8604C38.4283 38.9517 38.4383 39.0024 38.4586 39.0937C39.7725 38.9619 41.0965 38.8197 42.4106 38.6877C42.3801 38.5964 42.36 38.5558 42.3297 38.4645C41.0257 38.5964 39.7119 38.7284 38.3978 38.8604Z" fill="#6F33EA"/>
<path d="M35.4565 40.6166C35.4565 40.7079 35.4565 40.7586 35.4565 40.8499C35.6991 40.8195 35.8205 40.8094 36.063 40.779C36.063 40.6875 36.0731 40.647 36.0731 40.5555C35.8205 40.5759 35.6991 40.5861 35.4565 40.6166Z" fill="#04D361"/>
<path d="M36.5078 40.4946C36.5078 40.5859 36.5078 40.6266 36.4977 40.7179C37.5287 40.596 38.0644 40.5251 39.156 40.4032C39.156 40.3119 39.156 40.2712 39.156 40.1799C38.0744 40.3119 37.5388 40.3728 36.5078 40.4946Z" fill="#6F33EA"/>
<path d="M44.3512 39.5913C44.3612 39.6725 44.3713 39.7131 44.3713 39.8044C44.6138 39.774 44.7352 39.7637 44.9778 39.7333C44.9677 39.6521 44.9575 39.6116 44.9475 39.5304C44.715 39.5506 44.5938 39.5608 44.3512 39.5913Z" fill="#AD92FF"/>
<path d="M39.7321 40.1191C39.7321 40.2105 39.7321 40.251 39.7321 40.3425C41.1068 40.1799 42.4914 40.0175 43.8661 39.8654C43.8559 39.7842 43.8559 39.7435 43.8458 39.6522C42.4712 39.8044 41.1068 39.9567 39.7321 40.1191Z" fill="#6F33EA"/>
<path d="M45.463 39.4593C45.4833 39.5404 45.4833 39.5811 45.4933 39.6623C46.9488 39.4897 48.3941 39.3172 49.8496 39.1445C49.8293 39.0633 49.8091 39.0228 49.789 38.9517C48.3435 39.1242 46.9083 39.2969 45.463 39.4593Z" fill="#6F33EA"/>
<path d="M34.931 43.2862C34.8804 43.3674 34.8501 43.4079 34.7996 43.4891C35.0423 43.4486 35.1735 43.4383 35.4263 43.3978C35.4869 43.3166 35.5071 43.2759 35.5577 43.1947C35.3049 43.2354 35.1735 43.2556 34.931 43.2862Z" fill="#04D361"/>
<path d="M36.1238 43.134C36.0732 43.2152 36.0429 43.2456 35.9924 43.3268C37.0233 43.1848 37.5791 43.1034 38.7214 42.9512C38.7718 42.8801 38.8022 42.8396 38.8526 42.7584C37.7105 42.9106 37.1548 42.9817 36.1238 43.134Z" fill="#6F33EA"/>
<path d="M44.4116 42.0578C44.3713 42.1289 44.351 42.1694 44.3005 42.2405C44.5633 42.2101 44.6947 42.1897 44.9675 42.1593C45.008 42.0882 45.0281 42.0477 45.0686 41.9766C44.8058 42.007 44.6744 42.0273 44.4116 42.0578Z" fill="#04D361"/>
<path d="M39.4491 42.6771C39.3985 42.7583 39.3783 42.7887 39.3177 42.8699C40.7934 42.6771 42.269 42.4943 43.7447 42.3116C43.7953 42.2406 43.8156 42.2 43.8559 42.1288C42.3904 42.3116 40.9248 42.4943 39.4491 42.6771Z" fill="#6F33EA"/>
<path d="M45.6145 41.9056C45.5742 41.9767 45.5539 42.0172 45.5134 42.0884C47.0903 41.8955 48.667 41.7027 50.2436 41.4996C50.2741 41.4285 50.2944 41.388 50.3145 41.3169C48.758 41.52 47.1914 41.7128 45.6145 41.9056Z" fill="#6F33EA"/>
<path d="M33.9808 44.4635C33.9102 44.5346 33.8697 44.5751 33.7888 44.6462C34.0314 44.6055 34.1527 44.5954 34.3953 44.5548C34.4761 44.4838 34.5165 44.4431 34.5873 44.3722C34.3447 44.4026 34.2234 44.4228 33.9808 44.4635Z" fill="#04D361"/>
<path d="M35.1837 44.2504C35.1129 44.3215 35.0726 44.3621 34.9917 44.4332C36.0125 44.2809 36.5684 44.2098 37.7308 44.0576C37.8116 43.9865 37.8419 43.946 37.9228 43.8749C36.7706 44.0272 36.2147 44.1084 35.1837 44.2504Z" fill="#6F33EA"/>
<path d="M43.7646 43.1643C43.694 43.2352 43.6637 43.2759 43.5929 43.347C43.876 43.3164 44.0174 43.2962 44.3005 43.2658C44.3711 43.1947 44.4014 43.154 44.4722 43.0831C44.1892 43.1135 44.0477 43.1338 43.7646 43.1643Z" fill="#04D361"/>
<path d="M38.5294 43.7935C38.4586 43.8646 38.4183 43.9051 38.3475 43.9762C39.8535 43.7834 41.3696 43.5904 42.8755 43.4078C42.9463 43.3367 42.9766 43.296 43.0474 43.2251C41.5414 43.4179 40.0353 43.6007 38.5294 43.7935Z" fill="#6F33EA"/>
<path d="M44.8566 43.0119C44.796 43.0831 44.7655 43.1236 44.6949 43.1947C46.3221 43.0019 47.9494 42.7988 49.5768 42.5957C49.6374 42.5248 49.6576 42.4841 49.7182 42.413C48.101 42.616 46.4738 42.8089 44.8566 43.0119Z" fill="#6F33EA"/>
<path d="M32.1212 45.1741C32.0404 45.2452 31.9999 45.2756 31.919 45.3467C32.1212 45.3161 32.2222 45.2959 32.4244 45.2553C32.5052 45.1843 32.5457 45.1537 32.6266 45.0828C32.4244 45.1233 32.3233 45.1436 32.1212 45.1741Z" fill="#04D361"/>
<path d="M33.0208 45.032C32.9399 45.1029 32.8996 45.1335 32.8085 45.2045C33.7081 45.0624 34.2135 44.9812 35.285 44.8392C35.3759 44.768 35.4164 44.7376 35.4972 44.6665C34.4257 44.8086 33.9204 44.8797 33.0208 45.032Z" fill="#6F33EA"/>
<path d="M40.9955 43.9966C40.9146 44.0677 40.8741 44.1082 40.7832 44.1793C41.0561 44.1489 41.1977 44.1286 41.4806 44.0981C41.5716 44.027 41.612 43.9865 41.6928 43.9154C41.4099 43.9458 41.2683 43.9559 40.9955 43.9966Z" fill="#04D361"/>
<path d="M36.063 44.5853C35.9822 44.6564 35.9316 44.6868 35.8508 44.7579C37.2961 44.5651 38.7313 44.3824 40.1767 44.1996C40.2576 44.1285 40.3081 44.0981 40.389 44.027C38.9435 44.1996 37.4983 44.3824 36.063 44.5853Z" fill="#6F33EA"/>
<path d="M34.5874 42.7583C34.5469 42.8395 34.5267 42.8802 34.4863 42.9614C35.4365 42.8193 35.9418 42.7482 37.0031 42.6062C37.0434 42.525 37.0637 42.4843 37.104 42.4031C36.053 42.5554 35.5374 42.6263 34.5874 42.7583Z" fill="#04D361"/>
<path d="M42.3498 41.7432C42.3196 41.8244 42.2993 41.8548 42.2588 41.9362C42.5115 41.9056 42.6329 41.8854 42.8956 41.8548C42.9361 41.7736 42.9461 41.7432 42.9766 41.662C42.7238 41.6924 42.5924 41.7027 42.3498 41.7432Z" fill="#04D361"/>
<path d="M37.6701 42.3318C37.6296 42.413 37.6095 42.4536 37.569 42.5348C38.9537 42.3521 40.3486 42.1694 41.7333 41.9969C41.7738 41.9157 41.7838 41.8851 41.8243 41.8039C40.4395 41.9765 39.0548 42.149 37.6701 42.3318Z" fill="#6F33EA"/>
<path d="M43.5022 41.5909C43.4719 41.6721 43.4516 41.7025 43.4213 41.7837C44.9476 41.5909 46.4738 41.4082 48.0101 41.2153C48.0303 41.1442 48.0404 41.1037 48.0606 41.0225C46.5446 41.2153 45.0285 41.4082 43.5022 41.5909Z" fill="#6F33EA"/>
<path d="M48.6165 40.9617C48.5963 41.0326 48.5862 41.0733 48.566 41.1545C51.9418 40.7282 55.3076 40.3018 58.6734 39.8146C58.6734 39.7435 58.6834 39.7028 58.6834 39.6319C55.3279 40.109 51.9723 40.5454 48.6165 40.9617Z" fill="#6F33EA"/>
<path d="M37.63 41.0225C37.6198 41.1138 37.6097 41.1545 37.5895 41.2357C38.6508 41.1037 39.2067 41.0326 40.3388 40.9007C40.3488 40.8195 40.3588 40.7788 40.3691 40.6875C39.2472 40.8195 38.6913 40.8906 37.63 41.0225Z" fill="#04D361"/>
<path d="M45.7359 40.048C45.7359 40.1292 45.7359 40.1699 45.7359 40.2511C45.9887 40.2206 46.1099 40.2106 46.3626 40.18C46.3626 40.0988 46.3626 40.0582 46.3526 39.9771C46.1099 40.0075 45.9887 40.0176 45.7359 40.048Z" fill="#04D361"/>
<path d="M40.9653 40.6164C40.9551 40.6976 40.9551 40.7382 40.935 40.8295C42.36 40.657 43.7852 40.4844 45.2104 40.3119C45.2104 40.2307 45.2104 40.19 45.2104 40.1088C43.7953 40.2815 42.3803 40.4439 40.9653 40.6164Z" fill="#6F33EA"/>
<path d="M46.8882 39.9059C46.8983 39.9871 46.8983 40.0276 46.8983 40.1088C48.3841 39.9262 49.8801 39.7435 51.3657 39.5607C51.3557 39.4795 51.3456 39.4491 51.3254 39.3679C49.8496 39.5505 48.3638 39.7332 46.8882 39.9059Z" fill="#6F33EA"/>
<path d="M33.3039 44.0677C33.2433 44.1388 33.213 44.1793 33.1522 44.2504C34.0317 44.1084 34.5066 44.0373 35.5376 43.8849C35.6084 43.8138 35.6387 43.7733 35.6993 43.7022C34.6683 43.8444 34.1832 43.9256 33.3039 44.0677Z" fill="#6F33EA"/>
<path d="M40.9652 43.0121C40.9046 43.0933 40.8743 43.1237 40.8035 43.2049C41.0663 43.1745 41.1977 43.1542 41.4705 43.1237C41.5313 43.0528 41.5616 43.0121 41.6222 42.9309C41.3594 42.9613 41.228 42.9817 40.9652 43.0121Z" fill="#04D361"/>
<path d="M47.3228 42.21C47.2722 42.2812 47.252 42.3218 47.2014 42.3928C47.4744 42.3624 47.6159 42.342 47.8887 42.3116C47.9393 42.2406 47.9595 42.2 48.0101 42.1288C47.7372 42.1594 47.5956 42.1796 47.3228 42.21Z" fill="#04D361"/>
<path d="M36.2351 43.621C36.1745 43.692 36.1441 43.7327 36.0734 43.8038C37.4479 43.6108 38.8327 43.428 40.2174 43.2556C40.278 43.1844 40.3083 43.1439 40.3691 43.0728C38.9944 43.2556 37.6198 43.428 36.2351 43.621Z" fill="#6F33EA"/>
<path d="M42.077 42.8598C42.0163 42.9308 41.986 42.9715 41.9254 43.0424C43.492 42.8496 45.0586 42.6567 46.6253 42.4639C46.6758 42.3928 46.7061 42.3523 46.7466 42.2812C45.2001 42.474 43.6334 42.6668 42.077 42.8598Z" fill="#6F33EA"/>
<path d="M48.5861 42.0577C48.5456 42.1287 48.5153 42.1694 48.475 42.2403C50.0719 42.0374 51.6789 41.8446 53.276 41.6314C53.3163 41.5603 53.3366 41.5196 53.3669 41.4487C51.77 41.6618 50.173 41.8547 48.5861 42.0577Z" fill="#6F33EA"/>
<path d="M44.7554 37.5204C44.816 37.6119 44.8363 37.6524 44.8868 37.7439C46.2715 37.6119 47.6562 37.4697 49.0409 37.3175C48.9701 37.2363 48.9398 37.1956 48.8691 37.1144C47.5045 37.2565 46.1299 37.3885 44.7554 37.5204Z" fill="#6F33EA"/>
<path d="M49.4554 37.0534C49.526 37.1346 49.5665 37.1753 49.6271 37.2564C50.4459 37.1753 50.8602 37.1245 51.6789 37.0332C51.6082 36.952 51.5677 36.9113 51.4869 36.8402C50.6784 36.9317 50.2739 36.9722 49.4554 37.0534Z" fill="#04D361"/>
<path d="M52.0833 36.7795C52.1642 36.8607 52.2047 36.9012 52.2855 36.9724C52.4775 36.952 52.5786 36.9419 52.7807 36.9216C52.6998 36.8404 52.6595 36.81 52.5786 36.7288C52.3764 36.7491 52.2753 36.7592 52.0833 36.7795Z" fill="#04D361"/>
<path d="M43.8055 37.6119C43.856 37.7032 43.8863 37.7439 43.9369 37.8351C44.1694 37.815 44.2805 37.8047 44.5131 37.7743C44.4625 37.683 44.4322 37.6423 44.3817 37.551C44.1491 37.5815 44.038 37.5915 43.8055 37.6119Z" fill="#AD92FF"/>
<path d="M34.2843 39.9872C34.2943 40.0887 34.3044 40.1292 34.3146 40.2308C35.295 40.1191 35.8004 40.0583 36.8314 39.9465C36.8212 39.8552 36.8212 39.8044 36.8009 39.7131C35.7801 39.8248 35.2647 39.8755 34.2843 39.9872Z" fill="#04D361"/>
<path d="M37.357 39.652C37.367 39.7433 37.3771 39.7941 37.3873 39.8854C38.7012 39.7433 40.005 39.591 41.3191 39.449C41.309 39.3577 41.2988 39.317 41.2785 39.2257C39.9647 39.3678 38.6608 39.5098 37.357 39.652Z" fill="#6F33EA"/>
<path d="M42.6229 39.0837C42.643 39.175 42.6532 39.2157 42.6733 39.307C44.0984 39.1446 45.5337 38.9924 46.9589 38.8299C46.9286 38.7487 46.9083 38.7082 46.878 38.627C45.463 38.769 44.0479 38.9213 42.6229 39.0837Z" fill="#6F33EA"/>
<path d="M47.4843 38.5457C47.5248 38.6269 47.5349 38.6674 47.5652 38.7486C50.6581 38.3934 53.751 38.0279 56.8338 37.632C56.773 37.5611 56.7529 37.5204 56.6922 37.4495C53.6297 37.8351 50.557 38.2006 47.4843 38.5457Z" fill="#6F33EA"/>
<path d="M41.6627 39.1852C41.683 39.2765 41.693 39.3172 41.7031 39.4085C41.9356 39.3781 42.0569 39.368 42.2893 39.3476C42.2692 39.2562 42.259 39.2157 42.2387 39.1244C42.0064 39.1446 41.885 39.1649 41.6627 39.1852Z" fill="#AD92FF"/>
<path d="M34.4258 42.149C34.4055 42.2302 34.3853 42.281 34.3652 42.3622C35.3051 42.2302 35.8105 42.1593 36.8515 42.0171C36.8818 41.9359 36.892 41.8953 36.9223 41.8141C35.8712 41.9562 35.3657 42.0171 34.4258 42.149Z" fill="#04D361"/>
<path d="M37.4681 41.7431C37.4378 41.8243 37.4278 41.865 37.3975 41.9462C38.7518 41.7634 40.1163 41.601 41.4807 41.4284C41.5112 41.3472 41.5212 41.3067 41.5415 41.2255C40.1769 41.3979 38.8225 41.5706 37.4681 41.7431Z" fill="#6F33EA"/>
<path d="M42.9665 41.0528C42.9463 41.1342 42.9362 41.1747 42.916 41.2559C44.4422 41.0732 45.9684 40.8803 47.4947 40.6976C47.5047 40.6164 47.5148 40.586 47.5148 40.5048C45.9987 40.6875 44.4826 40.8702 42.9665 41.0528Z" fill="#6F33EA"/>
<path d="M48.1616 40.4237C48.1514 40.5049 48.1516 40.5353 48.1414 40.6165C51.406 40.2105 54.6607 39.7943 57.9254 39.3375C57.9152 39.2664 57.9051 39.2259 57.8951 39.1548C54.6607 39.6015 51.4161 40.0175 48.1616 40.4237Z" fill="#6F33EA"/>
<path d="M41.9456 41.1851C41.9254 41.2663 41.9153 41.3068 41.885 41.388C42.1276 41.3576 42.259 41.3475 42.5015 41.3068C42.5218 41.2256 42.5318 41.1851 42.5521 41.1039C42.3095 41.1343 42.1882 41.1545 41.9456 41.1851Z" fill="#04D361"/>
<path d="M36.5583 37.4596C36.6089 37.5609 36.629 37.622 36.6795 37.7233C37.9733 37.622 39.2671 37.5102 40.5609 37.4088C40.5104 37.3073 40.4801 37.2666 40.4193 37.165C39.1357 37.2666 37.8521 37.3681 36.5583 37.4596Z" fill="#6F33EA"/>
<path d="M41.703 37.0536C41.7636 37.1448 41.7939 37.1956 41.8547 37.2971C43.1888 37.1855 44.5229 37.0636 45.857 36.9419C45.7864 36.8505 45.7459 36.81 45.6753 36.7185C44.3512 36.8404 43.0271 36.952 41.703 37.0536Z" fill="#6F33EA"/>
<path d="M46.1403 36.678C46.2212 36.7693 46.2515 36.8099 46.3323 36.9012C48.9097 36.6576 51.4971 36.4038 54.0745 36.1398C53.9735 36.0689 53.923 36.0282 53.8219 35.947C51.2545 36.211 48.6974 36.4445 46.1403 36.678Z" fill="#6F33EA"/>
<path d="M40.8845 37.1245C40.9451 37.2261 40.9754 37.2666 41.0259 37.3681C41.2079 37.3478 41.2989 37.3478 41.4807 37.3276C41.4201 37.2362 41.3999 37.1854 41.3393 37.0839C41.1573 37.1042 41.0664 37.1042 40.8845 37.1245Z" fill="#AD92FF"/>
<path d="M31.3934 45.7323C31.3025 45.8034 31.262 45.8339 31.1609 45.8947C31.9999 45.7426 32.485 45.6612 33.5665 45.5091C33.6676 45.438 33.7182 45.4075 33.8091 45.3364C32.7377 45.4988 32.2424 45.58 31.3934 45.7323Z" fill="#04D361"/>
<path d="M31.828 46.0267C31.7269 46.0875 31.6765 46.1282 31.5652 46.1891C31.8382 46.1485 31.9796 46.1181 32.2828 46.0774C32.3941 46.0166 32.4447 45.9759 32.5456 45.915C32.2525 45.9658 32.1111 45.9861 31.828 46.0267Z" fill="#04D361"/>
<path d="M32.9703 45.8542C32.8692 45.9252 32.8086 45.9556 32.7075 46.0166C33.6981 45.8744 34.2438 45.8035 35.4062 45.6512C35.5173 45.5801 35.5679 45.5496 35.679 45.4888C34.5066 45.6411 33.9609 45.712 32.9703 45.8542Z" fill="#6F33EA"/>
<path d="M36.2753 45.4075C36.1641 45.4787 36.1136 45.5091 36.0024 45.5699C37.5388 45.3771 39.0852 45.1944 40.6215 45.0219C40.7226 44.9508 40.7832 44.9204 40.8843 44.8492C39.348 45.032 37.8116 45.2248 36.2753 45.4075Z" fill="#6F33EA"/>
<path d="M29.9684 46.6966C29.8571 46.7576 29.8067 46.788 29.6954 46.8489C29.9279 46.8084 30.0492 46.788 30.3018 46.7474C30.413 46.6865 30.4738 46.6561 30.5849 46.585C30.3221 46.6256 30.2007 46.6561 29.9684 46.6966Z" fill="#04D361"/>
<path d="M30.9488 46.5242C30.8376 46.585 30.777 46.6155 30.6659 46.6866C31.525 46.5445 32.0203 46.4734 33.0916 46.3313C33.213 46.2703 33.2736 46.2298 33.3847 46.1689C32.3134 46.3211 31.8181 46.3922 30.9488 46.5242Z" fill="#6F33EA"/>
<path d="M39.2671 45.4583C39.156 45.5293 39.0954 45.5597 38.974 45.6207C40.1161 45.4888 41.2683 45.3669 42.4106 45.2452C42.5217 45.174 42.5823 45.1436 42.6935 45.0725C41.5514 45.2045 40.4092 45.3264 39.2671 45.4583Z" fill="#04D361"/>
<path d="M33.9507 46.0979C33.8293 46.1588 33.7788 46.1993 33.6576 46.2603C35.1231 46.0675 36.5987 45.8949 38.0744 45.7325C38.1956 45.6614 38.2564 45.6309 38.3675 45.5701C36.8818 45.7325 35.4162 45.9049 33.9507 46.0979Z" fill="#6F33EA"/>
<path d="M29.1091 47.458C28.9777 47.519 28.9071 47.5495 28.7757 47.6103C28.9777 47.5799 29.0788 47.5596 29.2911 47.5291C29.4325 47.4683 29.4933 47.4379 29.6247 47.3768C29.4125 47.4073 29.3113 47.4276 29.1091 47.458Z" fill="#04D361"/>
<path d="M30.0189 47.3158C29.8875 47.3768 29.8168 47.4072 29.6752 47.4681C30.6051 47.3361 31.1307 47.265 32.2729 47.133C32.4145 47.0722 32.4851 47.0418 32.6165 46.9809C31.4744 47.123 30.9488 47.1838 30.0189 47.3158Z" fill="#6F33EA"/>
<path d="M38.4586 46.3315C38.3272 46.3923 38.2565 46.4329 38.1149 46.4939C38.398 46.4635 38.5496 46.4532 38.8325 46.4228C38.9742 46.3619 39.0348 46.3212 39.1762 46.2604C38.8831 46.2908 38.7416 46.3111 38.4586 46.3315Z" fill="#04D361"/>
<path d="M33.2229 46.9098C33.0813 46.9707 33.0106 47.0011 32.8792 47.0621C34.4256 46.8895 35.972 46.717 37.5286 46.5546C37.67 46.4936 37.7408 46.4531 37.8722 46.3922C36.3156 46.5647 34.7693 46.7271 33.2229 46.9098Z" fill="#6F33EA"/>
<path d="M39.7825 46.1994C39.6511 46.2703 39.5805 46.3007 39.4491 46.3618C41.1875 46.1891 42.926 46.0064 44.6644 45.8339C44.7958 45.7628 44.8564 45.7324 44.9878 45.6613C43.2494 45.844 41.5109 46.0166 39.7825 46.1994Z" fill="#6F33EA"/>
<path d="M24.5914 49.2751C24.4196 49.336 24.3388 49.3563 24.1568 49.4172C24.3388 49.3969 24.4399 49.3765 24.6419 49.3563C24.8138 49.2953 24.9047 49.2751 25.0765 49.2141C24.8845 49.2345 24.7834 49.2445 24.5914 49.2751Z" fill="#04D361"/>
<path d="M25.4705 49.1633C25.2988 49.2243 25.2077 49.2548 25.0359 49.3055C25.9354 49.204 26.461 49.1431 27.6133 49.0314C27.7953 48.9705 27.8862 48.9401 28.0579 48.8792C26.8957 48.9908 26.3701 49.0517 25.4705 49.1633Z" fill="#6F33EA"/>
<path d="M34.0417 48.3514C33.8598 48.4122 33.7689 48.4529 33.597 48.5138C33.8903 48.4934 34.0417 48.4731 34.3451 48.4529C34.527 48.3919 34.6179 48.3514 34.7897 48.2905C34.4865 48.321 34.3451 48.331 34.0417 48.3514Z" fill="#04D361"/>
<path d="M28.6646 48.8283C28.4826 48.8893 28.3916 48.9198 28.2096 48.9806C29.7965 48.8386 31.3936 48.6963 32.9803 48.5746C33.1623 48.5136 33.2533 48.4832 33.4351 48.4122C31.8382 48.5339 30.2513 48.6762 28.6646 48.8283Z" fill="#6F33EA"/>
<path d="M35.4164 48.2397C35.2344 48.3005 35.1536 48.3412 34.9716 48.4021C36.7606 48.26 38.5597 48.1178 40.3487 47.9757C40.5306 47.9046 40.6115 47.8742 40.7834 47.8031C38.9943 47.9554 37.2053 48.0976 35.4164 48.2397Z" fill="#6F33EA"/>
<path d="M21.9029 50.1175C21.7109 50.1784 21.6198 50.1987 21.4278 50.2596C21.5997 50.2393 21.6906 50.2292 21.8927 50.2088C22.0848 50.148 22.1757 50.1276 22.3677 50.0668C22.1657 50.0769 22.0746 50.0869 21.9029 50.1175Z" fill="#04D361"/>
<path d="M22.7214 50.016C22.5292 50.0769 22.4383 50.0972 22.2361 50.158C23.0953 50.0668 23.6107 50.016 24.7428 49.9247C24.9449 49.8637 25.0359 49.8333 25.238 49.7724C24.106 49.8739 23.5905 49.9247 22.7214 50.016Z" fill="#6F33EA"/>
<path d="M31.2217 49.3257C31.0196 49.3868 30.9285 49.4273 30.7265 49.4881C31.0196 49.468 31.1711 49.4577 31.4744 49.4374C31.6765 49.3765 31.7776 49.336 31.9697 49.275C31.6766 49.2852 31.525 49.2953 31.2217 49.3257Z" fill="#04D361"/>
<path d="M25.8444 49.7317C25.6524 49.7925 25.5513 49.823 25.3491 49.8838C26.936 49.7519 28.5229 49.6402 30.1096 49.5286C30.3119 49.4678 30.413 49.4373 30.605 49.3662C29.0181 49.4778 27.4313 49.5997 25.8444 49.7317Z" fill="#6F33EA"/>
<path d="M32.6064 49.2242C32.4043 49.2852 32.3133 49.3257 32.1112 49.3866C33.9204 49.2649 35.7195 49.143 37.5287 49.0213C37.7308 48.9502 37.8218 48.9197 38.0239 48.8486C36.2147 48.9705 34.4055 49.0922 32.6064 49.2242Z" fill="#6F33EA"/>
<path d="M19.5072 50.6656C19.3152 50.7163 19.2242 50.7468 19.0322 50.7975C19.1433 50.7772 19.1939 50.767 19.3253 50.7468C19.5173 50.696 19.6184 50.6656 19.8104 50.6148C19.679 50.6351 19.6184 50.6452 19.5072 50.6656Z" fill="#04D361"/>
<path d="M20.063 50.5844C19.871 50.6351 19.7699 50.6656 19.5779 50.7264C20.1843 50.6452 20.5886 50.6047 21.5287 50.5235C21.7307 50.4625 21.8318 50.4321 22.034 50.3813C21.0839 50.4625 20.6797 50.5032 20.063 50.5844Z" fill="#6F33EA"/>
<path d="M27.4111 49.955C27.209 50.016 27.0979 50.0464 26.8856 50.1073C27.1685 50.0869 27.3101 50.0768 27.593 50.0565C27.8053 49.9956 27.9064 49.9652 28.1186 49.8941C27.8356 49.9348 27.6941 49.9449 27.4111 49.955Z" fill="#04D361"/>
<path d="M22.5394 50.3307C22.3374 50.3915 22.2363 50.4219 22.0341 50.4727C23.4592 50.351 24.8844 50.2495 26.3095 50.158C26.5217 50.0971 26.6228 50.0667 26.8351 50.0059C25.3998 50.0971 23.9747 50.1987 22.5394 50.3307Z" fill="#6F33EA"/>
<path d="M25.2786 48.9095C25.1169 48.9704 25.0361 48.9907 24.8744 49.0516C25.5615 48.9399 25.9963 48.8892 26.9767 48.7675C27.1484 48.7064 27.2293 48.676 27.391 48.6252C26.4107 48.7471 25.976 48.7979 25.2786 48.9095Z" fill="#04D361"/>
<path d="M32.7984 48.0772C32.6264 48.138 32.5456 48.1686 32.3738 48.2295C32.6467 48.2091 32.7881 48.1888 33.0712 48.1686C33.243 48.1076 33.3238 48.0772 33.4957 48.0062C33.2127 48.0367 33.0712 48.0467 32.7984 48.0772Z" fill="#04D361"/>
<path d="M27.9266 48.5645C27.7549 48.6254 27.674 48.6558 27.5021 48.7168C28.9374 48.5544 30.3626 48.4225 31.7978 48.2905C31.9697 48.2295 32.0506 48.199 32.2223 48.1382C30.7871 48.2701 29.3518 48.4021 27.9266 48.5645Z" fill="#6F33EA"/>
<path d="M34.0921 47.9555C33.9204 48.0163 33.8395 48.0467 33.6676 48.1179C35.4162 47.9655 37.1648 47.8132 38.9134 47.6712C39.0851 47.6001 39.166 47.5696 39.3277 47.4985C37.5791 47.6508 35.8407 47.8032 34.0921 47.9555Z" fill="#6F33EA"/>
<path d="M39.9644 47.4477C39.8026 47.5188 39.7218 47.5493 39.55 47.6204C43.2392 47.3057 46.9284 47.0113 50.5974 46.6053C50.7591 46.5342 50.8399 46.4937 51.0016 46.4125C47.3327 46.8185 43.6435 47.1229 39.9644 47.4477Z" fill="#6F33EA"/>
<path d="M30.0593 47.6305C29.9178 47.6913 29.837 47.7217 29.6954 47.7828C30.7163 47.6508 31.2823 47.5899 32.5052 47.458C32.6569 47.397 32.7277 47.3665 32.8792 47.3057C31.6562 47.4376 31.0801 47.4985 30.0593 47.6305Z" fill="#04D361"/>
<path d="M38.984 46.6662C38.8426 46.7272 38.7718 46.7677 38.6201 46.8286C38.9132 46.7981 39.0649 46.788 39.358 46.7576C39.5096 46.6865 39.5805 46.6561 39.7219 46.5952C39.4288 46.6256 39.2771 46.646 38.984 46.6662Z" fill="#04D361"/>
<path d="M33.5059 47.2245C33.3544 47.2854 33.2836 47.3158 33.132 47.3768C34.7594 47.2042 36.3766 47.0418 38.0038 46.8894C38.1554 46.8286 38.2261 46.7879 38.3677 46.7271C36.7505 46.8894 35.1333 47.0518 33.5059 47.2245Z" fill="#6F33EA"/>
<path d="M40.3487 46.5342C40.2072 46.6053 40.1364 46.6358 39.9847 46.6966C41.7435 46.5241 43.5022 46.3617 45.2608 46.1891C45.4025 46.1181 45.4731 46.0877 45.6045 46.0166C43.8559 46.1993 42.0973 46.3617 40.3487 46.5342Z" fill="#6F33EA"/>
<path d="M22.3171 49.8334C22.1454 49.8842 22.0543 49.9146 21.8826 49.9654C22.4283 49.8741 22.7922 49.8233 23.6715 49.7218C23.8535 49.6609 23.9444 49.6406 24.1365 49.5796C23.247 49.6914 22.863 49.7421 22.3171 49.8334Z" fill="#6F33EA"/>
<path d="M29.2307 49.1125C29.0385 49.1734 28.9476 49.2038 28.7556 49.2647C29.0285 49.2445 29.1599 49.2343 29.4429 49.2141C29.6349 49.1531 29.7258 49.1226 29.9178 49.0618C29.6349 49.0821 29.4933 49.0922 29.2307 49.1125Z" fill="#04D361"/>
<path d="M36.3461 48.5544C36.1642 48.6255 36.0631 48.6559 35.8811 48.7269C36.1945 48.7067 36.3461 48.6964 36.6593 48.666C36.8515 48.5949 36.9424 48.5645 37.1243 48.4935C36.811 48.524 36.6593 48.534 36.3461 48.5544Z" fill="#04D361"/>
<path d="M24.6012 49.5389C24.4193 49.5997 24.3284 49.6302 24.1364 49.6809C25.4907 49.5389 26.8451 49.4273 28.1893 49.3156C28.3815 49.2546 28.4724 49.2242 28.6644 49.1633C27.31 49.275 25.9556 49.3968 24.6012 49.5389Z" fill="#6F33EA"/>
<path d="M30.494 49.0108C30.302 49.0719 30.2111 49.1023 30.0189 49.1632C31.7575 49.0312 33.4959 48.8992 35.2344 48.7673C35.4264 48.6963 35.5175 48.6659 35.7095 48.6049C33.9709 48.7368 32.2325 48.8688 30.494 49.0108Z" fill="#6F33EA"/>
<path d="M37.7713 48.4527C37.5893 48.5237 37.4882 48.5543 37.3063 48.6252C39.0751 48.4933 40.854 48.3613 42.6227 48.2293C42.8149 48.1584 42.9058 48.1177 43.0877 48.0468C41.3088 48.1787 39.54 48.3208 37.7713 48.4527Z" fill="#6F33EA"/>
<path d="M42.5317 44.6667C42.4306 44.7378 42.38 44.7682 42.2791 44.8392C44.0074 44.6463 45.7357 44.4535 47.4641 44.2504C47.555 44.1795 47.6055 44.1491 47.6966 44.0779C45.9783 44.2708 44.25 44.4738 42.5317 44.6667Z" fill="#6F33EA"/>
<path d="M48.4244 43.9966C48.3335 44.0677 48.283 44.0981 48.1921 44.1692C49.2028 44.0576 49.7082 43.9966 50.7087 43.8749C50.7997 43.8037 50.8401 43.7733 50.9311 43.7022C49.9405 43.814 49.4351 43.8749 48.4244 43.9966Z" fill="#04D361"/>
<path d="M51.6285 43.6109C51.5376 43.682 51.4971 43.7225 51.4062 43.7936C51.6385 43.7632 51.7599 43.753 51.9924 43.7225C52.0833 43.6514 52.1238 43.6109 52.2147 43.5398C51.9822 43.5702 51.871 43.5805 51.6285 43.6109Z" fill="#04D361"/>
<path d="M41.3493 44.7985C41.2482 44.8694 41.1976 44.8999 41.0865 44.971C41.3695 44.9405 41.511 44.9202 41.7941 44.8898C41.8952 44.8187 41.9456 44.7882 42.0467 44.7173C41.7738 44.7578 41.6324 44.7681 41.3493 44.7985Z" fill="#04D361"/>
<path d="M29.2307 47.1231C29.1093 47.184 29.0487 47.2144 28.9274 47.2753C29.6552 47.1435 30.0898 47.0724 31.0601 46.9404C31.1915 46.8795 31.2521 46.8489 31.3733 46.7881C30.4132 46.9201 29.9684 46.9809 29.2307 47.1231Z" fill="#04D361"/>
<path d="M31.8989 46.7069C31.7777 46.7677 31.7069 46.7982 31.5856 46.8592C32.9704 46.6765 34.3551 46.5038 35.7498 46.3517C35.8812 46.2906 35.942 46.2501 36.0732 46.1893C34.6785 46.3517 33.2938 46.5141 31.8989 46.7069Z" fill="#6F33EA"/>
<path d="M37.6297 46.0164C37.5085 46.0775 37.4377 46.118 37.3165 46.1788C39.0246 45.986 40.7429 45.8135 42.4509 45.6308C42.5723 45.5597 42.6329 45.5292 42.7541 45.4581C41.046 45.6409 39.3379 45.8236 37.6297 46.0164Z" fill="#6F33EA"/>
<path d="M43.4819 45.3771C43.3605 45.4481 43.2999 45.4785 43.1786 45.5496C46.7869 45.164 50.4055 44.7884 54.0036 44.3417C54.1148 44.2706 54.1755 44.2301 54.2765 44.159C50.6884 44.6057 47.0902 44.9913 43.4819 45.3771Z" fill="#6F33EA"/>
<path d="M36.5078 46.1385C36.3866 46.1994 36.3158 46.24 36.1844 46.3009C36.4472 46.2705 36.5886 46.2604 36.8515 46.2299C36.9829 46.1689 37.0436 46.1284 37.1648 46.0674C36.902 46.098 36.7706 46.1081 36.5078 46.1385Z" fill="#04D361"/>
<path d="M26.2085 48.5037C26.0569 48.5645 25.9861 48.5849 25.8344 48.6457C26.5015 48.5341 26.9159 48.4731 27.8761 48.3513C28.0378 48.2905 28.1086 48.2599 28.2703 48.199C27.3102 48.331 26.8856 48.3919 26.2085 48.5037Z" fill="#04D361"/>
<path d="M28.7757 48.138C28.624 48.1989 28.5432 48.2293 28.3815 48.2902C29.7764 48.1177 31.1813 47.9756 32.576 47.8437C32.7377 47.7826 32.8186 47.7522 32.9803 47.6913C31.5754 47.8233 30.1704 47.9756 28.7757 48.138Z" fill="#6F33EA"/>
<path d="M34.5672 47.5291C34.4055 47.59 34.3247 47.6204 34.163 47.6915C35.9216 47.5291 37.6802 47.3667 39.4389 47.2043C39.6008 47.1332 39.6714 47.1028 39.8331 47.0419C38.0845 47.1941 36.3259 47.3566 34.5672 47.5291Z" fill="#6F33EA"/>
<path d="M40.6014 46.9607C40.4499 47.0318 40.3691 47.0623 40.2174 47.1332C43.8661 46.8084 47.515 46.4836 51.1636 46.0776C51.3153 46.0065 51.3861 45.966 51.5376 45.8949C47.8889 46.3009 44.2401 46.6257 40.6014 46.9607Z" fill="#6F33EA"/>
<path d="M33.3643 47.6407C33.1924 47.7117 33.1015 47.7421 32.9296 47.8132C33.2227 47.7828 33.3743 47.7727 33.6674 47.7421C33.8393 47.6712 33.9302 47.6408 34.102 47.5696C33.8089 47.6001 33.6574 47.6102 33.3643 47.6407Z" fill="#04D361"/>
<path d="M34.2538 45.2756C34.163 45.3465 34.1124 45.377 34.0113 45.4481C35.4263 45.245 36.8414 45.0624 38.2665 44.8898C38.3676 44.8187 38.4081 44.7882 38.5092 44.7173C37.084 44.8999 35.669 45.0725 34.2538 45.2756Z" fill="#6F33EA"/>
<path d="M40.0353 44.5347C39.9442 44.6056 39.8939 44.6361 39.8028 44.7072C41.4705 44.5041 43.1282 44.3113 44.7958 44.1184C44.8869 44.0473 44.9272 44.0169 45.0183 43.9458C43.3403 44.1388 41.6828 44.3316 40.0353 44.5347Z" fill="#6F33EA"/>
<path d="M45.5945 43.8747C45.5136 43.9458 45.4631 43.9762 45.3822 44.0472C48.5558 43.6819 51.7196 43.3063 54.8831 42.9002C54.9538 42.8292 54.9943 42.7885 55.0651 42.7176C51.9116 43.1236 48.758 43.4991 45.5945 43.8747Z" fill="#6F33EA"/>
<path d="M39.0448 44.6461C38.9538 44.7173 38.9032 44.7477 38.8021 44.8188C39.0246 44.7884 39.1257 44.7781 39.348 44.7477C39.4491 44.6766 39.4894 44.6461 39.5905 44.5752C39.3682 44.6157 39.2571 44.6258 39.0448 44.6461Z" fill="#04D361"/>
<path d="M18.0921 51.0615C17.9001 51.1123 17.799 51.1427 17.5968 51.1935C18.0113 51.1225 18.3449 51.0818 19.2039 51.0006C19.4162 50.9398 19.5173 50.9194 19.7194 50.8586C18.8603 50.9499 18.5166 50.9905 18.0921 51.0615Z" fill="#04D361"/>
<path d="M17.2633 51.3762C17.0511 51.4371 16.95 51.4574 16.7377 51.5183C16.9197 51.4979 17.0208 51.4878 17.233 51.4675C17.4453 51.4066 17.5565 51.3863 17.7687 51.3254C17.5462 51.3458 17.4453 51.3559 17.2633 51.3762Z" fill="#04D361"/>
<path d="M18.082 51.295C17.8698 51.356 17.7586 51.3762 17.5464 51.4372C18.3146 51.3762 18.7896 51.3357 19.8711 51.2646C20.0934 51.2037 20.2046 51.1733 20.4271 51.1122C19.3353 51.1934 18.8604 51.2341 18.082 51.295Z" fill="#6F33EA"/>
<path d="M20.9929 51.0818C20.7704 51.1427 20.6593 51.1731 20.437 51.2339C21.9934 51.1427 23.55 51.0512 25.0964 50.97C25.3289 50.9092 25.44 50.8686 25.6625 50.8076C24.1159 50.8991 22.5493 50.9904 20.9929 51.0818Z" fill="#6F33EA"/>
<path d="M15.0903 51.8736C14.8781 51.9244 14.777 51.9548 14.5647 52.0157C14.6658 51.9953 14.7264 51.9953 14.8679 51.975C15.0802 51.9141 15.1914 51.8938 15.4036 51.8329C15.252 51.843 15.1914 51.8533 15.0903 51.8736Z" fill="#04D361"/>
<path d="M15.6159 51.8025C15.4037 51.8634 15.2925 51.8837 15.0701 51.9446C15.6058 51.8938 15.9798 51.8634 16.8794 51.8025C17.1119 51.7415 17.223 51.7111 17.4453 51.6502C16.5457 51.7213 16.1617 51.7517 15.6159 51.8025Z" fill="#6F33EA"/>
<path d="M23.1156 51.3355C22.8831 51.3965 22.7619 51.437 22.5294 51.4979C23.722 51.437 24.9248 51.3863 26.1175 51.3355C26.35 51.2646 26.4712 51.2341 26.7037 51.163C25.511 51.2239 24.3083 51.2747 23.1156 51.3355Z" fill="#04D361"/>
<path d="M17.9507 51.6198C17.7284 51.6807 17.607 51.7111 17.3847 51.7719C18.7896 51.6807 20.1946 51.6095 21.5995 51.5487C21.8319 51.4878 21.9532 51.4574 22.1857 51.3863C20.7706 51.4574 19.3556 51.5283 17.9507 51.6198Z" fill="#6F33EA"/>
<path d="M12.2803 52.6652C12.0479 52.7261 11.9367 52.7567 11.7042 52.8073C11.8154 52.7972 11.8761 52.7972 12.0075 52.7871C12.2399 52.7261 12.3612 52.6957 12.5937 52.6449C12.4623 52.6449 12.3915 52.6551 12.2803 52.6652Z" fill="#04D361"/>
<path d="M12.8566 52.6147C12.6241 52.6755 12.5028 52.7059 12.2704 52.7668C12.9072 52.7263 13.3317 52.7059 14.3323 52.6654C14.5749 52.6044 14.6962 52.574 14.9387 52.5131C13.9381 52.5536 13.5035 52.574 12.8566 52.6147Z" fill="#6F33EA"/>
<path d="M20.5686 52.2796C20.3158 52.3507 20.1946 52.3811 19.9418 52.4521C20.2349 52.442 20.3764 52.4319 20.6797 52.4216C20.9323 52.3507 21.0637 52.3201 21.3064 52.2491C21.0031 52.2592 20.8617 52.2693 20.5686 52.2796Z" fill="#04D361"/>
<path d="M15.4744 52.4825C15.2319 52.5434 15.1106 52.574 14.8579 52.6349C16.3539 52.574 17.8397 52.513 19.3355 52.4622C19.5881 52.3913 19.7095 52.3608 19.9622 52.2998C18.4662 52.3608 16.9704 52.4114 15.4744 52.4825Z" fill="#6F33EA"/>
<path d="M21.9228 52.2287C21.6702 52.2998 21.5488 52.3303 21.2962 52.4014C23.0952 52.3405 24.8943 52.2795 26.6935 52.2186C26.9461 52.1475 27.0775 52.107 27.3303 52.0359C25.5211 52.0967 23.7219 52.1679 21.9228 52.2287Z" fill="#6F33EA"/>
<path d="M4.65939 54.594C4.40669 54.6549 4.2753 54.6955 4.01251 54.7564C4.10349 54.7564 4.15403 54.7564 4.26521 54.7564C4.528 54.6955 4.65939 54.6549 4.92218 54.594C4.811 54.594 4.75035 54.594 4.65939 54.594Z" fill="#AD92FF"/>
<path d="M5.15477 54.5839C4.89198 54.6448 4.76059 54.6854 4.4978 54.7463C5.06381 54.7362 5.45799 54.7362 6.4182 54.726C6.6911 54.655 6.83261 54.6246 7.1055 54.5535C6.1352 54.5738 5.73089 54.5738 5.15477 54.5839Z" fill="#6F33EA"/>
<path d="M12.614 54.4823C12.331 54.5534 12.1895 54.5939 11.8964 54.665C12.1794 54.665 12.331 54.665 12.6241 54.6549C12.9071 54.5838 13.0587 54.5433 13.3417 54.4722C13.0486 54.4823 12.9071 54.4823 12.614 54.4823Z" fill="#04D361"/>
<path d="M7.62096 54.5533C7.34806 54.6244 7.20656 54.6548 6.93365 54.7259C8.39922 54.7056 9.8547 54.6953 11.3203 54.6752C11.6033 54.6041 11.7448 54.5635 12.0278 54.4924C10.5521 54.5128 9.08653 54.5329 7.62096 54.5533Z" fill="#6F33EA"/>
<path d="M13.9583 54.4721C13.6752 54.5432 13.5338 54.5837 13.2407 54.6548C14.9993 54.6345 16.7682 54.6244 18.5268 54.6041C18.8199 54.5229 18.9614 54.4925 19.2545 54.4113C17.4958 54.4316 15.727 54.4518 13.9583 54.4721Z" fill="#6F33EA"/>
<path d="M6.40805 54.0966C6.16546 54.1574 6.03409 54.1879 5.7915 54.2487C6.03409 54.2386 6.28676 54.2286 6.99428 54.2183C7.25707 54.1574 7.38846 54.1169 7.64114 54.0559C6.92352 54.0762 6.66073 54.0863 6.40805 54.0966Z" fill="#04D361"/>
<path d="M12.3107 53.9646C12.0378 54.0355 11.8963 54.066 11.6234 54.1371C11.8862 54.1371 12.0176 54.127 12.2905 54.127C12.5634 54.0559 12.7049 54.0255 12.9778 53.9543C12.7049 53.9543 12.5735 53.9543 12.3107 53.9646Z" fill="#04D361"/>
<path d="M8.02526 54.0458C7.76247 54.1067 7.63108 54.1473 7.36829 54.2082C8.60138 54.1778 9.84459 54.1574 11.0777 54.1371C11.3506 54.0661 11.4921 54.0355 11.765 53.9646C10.5218 53.995 9.26848 54.0154 8.02526 54.0458Z" fill="#6F33EA"/>
<path d="M13.5538 53.9342C13.2809 54.0053 13.1395 54.0357 12.8666 54.1068C14.5949 54.0762 16.3232 54.0561 18.0415 54.0256C18.3246 53.9545 18.466 53.9138 18.7389 53.8429C17.0106 53.8733 15.2822 53.9038 13.5538 53.9342Z" fill="#6F33EA"/>
<path d="M19.3859 53.8326C19.1029 53.9037 18.9614 53.9443 18.6783 54.0154C22.1452 53.9646 25.6222 53.9138 29.0891 53.8733C29.3922 53.7921 29.5337 53.7514 29.837 53.6602C26.3498 53.721 22.8629 53.7718 19.3859 53.8326Z" fill="#6F33EA"/>
<path d="M11.8659 53.0207C11.6233 53.0815 11.502 53.112 11.2493 53.1728C12.0276 53.1424 12.5228 53.1222 13.6347 53.0815C13.8873 53.0207 14.0187 52.98 14.2714 52.9191C13.1495 52.9699 12.6542 52.9902 11.8659 53.0207Z" fill="#04D361"/>
<path d="M20.2654 52.7365C20.0026 52.8075 19.8712 52.8379 19.6184 52.909C19.9216 52.8989 20.0732 52.8989 20.3765 52.8887C20.6393 52.8177 20.7706 52.7873 21.0334 52.7162C20.71 52.7162 20.5585 52.7263 20.2654 52.7365Z" fill="#04D361"/>
<path d="M14.8577 52.909C14.605 52.9699 14.4736 53.0104 14.2209 53.0714C15.8077 53.0207 17.3946 52.9699 18.9915 52.9292C19.2543 52.8583 19.3857 52.8278 19.6385 52.7567C18.0416 52.7972 16.4547 52.848 14.8577 52.909Z" fill="#6F33EA"/>
<path d="M21.6599 52.6959C21.3971 52.767 21.2657 52.7974 21.0029 52.8684C22.8021 52.8178 24.6011 52.767 26.3902 52.7263C26.653 52.6552 26.7844 52.6147 27.0472 52.5436C25.2581 52.5843 23.4591 52.635 21.6599 52.6959Z" fill="#6F33EA"/>
<path d="M27.4111 50.7164C27.1888 50.7875 27.0775 50.8179 26.8452 50.8788C28.6947 50.7875 30.5444 50.6859 32.4041 50.5946C32.6367 50.5235 32.7478 50.4931 32.9701 50.422C31.1104 50.5235 29.2608 50.6148 27.4111 50.7164Z" fill="#6F33EA"/>
<path d="M33.7384 50.3815C33.516 50.4524 33.4048 50.4931 33.1723 50.5641C34.2538 50.5134 34.7895 50.4829 35.8205 50.4322C36.053 50.3611 36.1641 50.3205 36.3866 50.2495C35.3556 50.3003 34.82 50.3205 33.7384 50.3815Z" fill="#04D361"/>
<path d="M37.1143 50.1988C36.8918 50.2697 36.7706 50.3104 36.5482 50.3815C36.7907 50.3712 36.9121 50.3612 37.1446 50.3509C37.3771 50.28 37.4882 50.2393 37.7105 50.1683C37.478 50.1784 37.3568 50.1885 37.1143 50.1988Z" fill="#04D361"/>
<path d="M26.1578 50.7772C25.9353 50.8382 25.8242 50.8788 25.5917 50.9396C25.8848 50.9194 26.0364 50.9194 26.3396 50.8991C26.5721 50.8382 26.6833 50.7976 26.9057 50.7367C26.6024 50.757 26.4509 50.7671 26.1578 50.7772Z" fill="#04D361"/>
<path d="M13.6247 52.2593C13.4125 52.31 13.3013 52.3405 13.0789 52.4013C13.372 52.3608 13.6449 52.3302 14.3727 52.2796C14.6051 52.2186 14.7163 52.1882 14.9488 52.1374C14.211 52.1882 13.9381 52.2085 13.6247 52.2593Z" fill="#04D361"/>
<path d="M15.3429 52.107C15.1105 52.168 14.9993 52.1984 14.7668 52.2593C16.01 52.1781 17.2531 52.1273 18.4964 52.0664C18.7389 52.0054 18.8603 51.975 19.0928 51.9041C17.8394 51.9649 16.5963 52.0258 15.3429 52.107Z" fill="#6F33EA"/>
<path d="M20.6392 51.8329C20.3965 51.894 20.2753 51.9345 20.0327 51.9955C21.8014 51.9244 23.5602 51.8533 25.3289 51.7823C25.5715 51.7112 25.6928 51.6808 25.9354 51.6097C24.1665 51.6705 22.4079 51.7517 20.6392 51.8329Z" fill="#6F33EA"/>
<path d="M26.7137 51.569C26.4712 51.6401 26.3498 51.6706 26.1072 51.7417C29.7559 51.5995 33.3946 51.4675 37.0434 51.295C37.296 51.2138 37.4274 51.1731 37.6701 51.0919C34.0213 51.2747 30.3624 51.4169 26.7137 51.569Z" fill="#6F33EA"/>
<path d="M19.5173 51.8837C19.2748 51.9447 19.1534 51.9751 18.9209 52.0461C19.1837 52.036 19.3151 52.0259 19.5779 52.0157C19.8205 51.9548 19.9418 51.9141 20.1844 51.8533C19.9115 51.8634 19.7801 51.8634 19.5173 51.8837Z" fill="#04D361"/>
<path d="M8.23758 53.6195C7.99501 53.6804 7.88381 53.7108 7.64124 53.7718C7.84338 53.7515 8.07586 53.7414 8.74296 53.721C8.99564 53.6602 9.11691 53.6296 9.3696 53.5687C8.70251 53.5891 8.45994 53.5992 8.23758 53.6195Z" fill="#04D361"/>
<path d="M9.75365 53.5487C9.50097 53.6096 9.36956 53.64 9.11688 53.7008C10.3197 53.6603 11.5224 53.6299 12.7252 53.5995C12.988 53.5284 13.1194 53.4979 13.3822 53.4371C12.1693 53.4776 10.9564 53.508 9.75365 53.5487Z" fill="#6F33EA"/>
<path d="M14.9086 53.4064C14.6458 53.4774 14.5144 53.5078 14.2415 53.5789C15.99 53.5384 17.7386 53.4977 19.4974 53.4673C19.7702 53.3962 19.9016 53.3557 20.1745 53.2845C18.4158 53.315 16.6672 53.3557 14.9086 53.4064Z" fill="#6F33EA"/>
<path d="M20.9425 53.2643C20.6695 53.3354 20.5382 53.3759 20.2652 53.447C23.7927 53.3759 27.3202 53.305 30.8375 53.2338C31.1205 53.1526 31.262 53.112 31.545 53.0308C28.0175 53.1019 24.48 53.1831 20.9425 53.2643Z" fill="#6F33EA"/>
<path d="M13.8068 53.4267C13.544 53.4976 13.4126 53.5282 13.1397 53.5991C13.3924 53.589 13.5238 53.589 13.7967 53.579C14.0595 53.5078 14.201 53.4774 14.4638 53.4063C14.1909 53.4164 14.0595 53.4267 13.8068 53.4267Z" fill="#04D361"/>
<path d="M20.0934 50.8281C19.8812 50.889 19.7802 50.9093 19.568 50.9702C20.8919 50.8585 22.216 50.7671 23.5401 50.6758C23.7625 50.615 23.8635 50.5845 24.0757 50.5235C22.7518 50.625 21.4175 50.7163 20.0934 50.8281Z" fill="#6F33EA"/>
<path d="M25.6526 50.4321C25.4404 50.4929 25.3291 50.5234 25.1068 50.5945C26.8856 50.4829 28.6545 50.3813 30.4334 50.2798C30.6557 50.2087 30.7568 50.1782 30.9791 50.1073C29.2002 50.2087 27.4315 50.3205 25.6526 50.4321Z" fill="#6F33EA"/>
<path d="M31.6259 50.0668C31.4136 50.1379 31.3025 50.1683 31.08 50.2394C34.4256 50.0464 37.7711 49.8639 41.1066 49.6507C41.3289 49.5695 41.4402 49.5389 41.6525 49.4577C38.317 49.6811 34.9714 49.874 31.6259 50.0668Z" fill="#6F33EA"/>
<path d="M24.6315 50.493C24.4192 50.554 24.3081 50.5844 24.0856 50.6453C24.3081 50.6352 24.4192 50.6249 24.6518 50.6148C24.8741 50.554 24.9752 50.5235 25.1975 50.4625C24.965 50.4728 24.8538 50.4829 24.6315 50.493Z" fill="#04D361"/>
<path d="M63.5553 33.5009C63.2016 33.3486 62.8174 33.2877 62.4334 33.3182L31.4745 35.4194C31.0399 35.4498 30.8176 35.9777 31.1107 36.3025C31.343 36.5664 31.5958 36.9013 31.8283 37.3073C31.8586 37.2871 31.8787 37.2768 31.9092 37.2567C32.0709 36.9825 32.3437 36.81 32.6571 36.7796L63.9798 33.6937C63.8282 33.6226 63.6867 33.5617 63.5553 33.5009Z" fill="#D7D7E1"/>
<path d="M39.7928 2.77451C38.2767 2.26698 33.9305 -1.5903 33.8295 0.744367C33.7284 3.07904 37.4682 6.6318 37.4682 6.6318C33.9305 4.60165 32.9703 1.18085 32.9703 1.18085C32.1415 1.1301 31.5048 1.41432 31.4036 2.36848C31.1005 5.41371 35.5476 8.66193 35.5476 8.66193C31.6059 6.83481 30.7972 3.38356 30.7972 3.38356C30.1907 3.58657 29.18 4.90616 30.7972 7.24083C32.4144 9.5755 35.6488 10.7936 35.6488 10.7936C37.1648 7.84988 40.0961 6.22576 41.3088 7.13933C42.5218 8.05289 41.5111 9.98152 41.5111 9.98152C43.0271 9.88002 43.2294 11.4026 43.2294 11.4026C41.9153 10.286 40.0961 10.6921 40.0961 10.6921C41.4099 9.98152 41.7133 6.83481 39.7928 7.54535C37.8724 8.25591 34.8402 11.7072 36.8617 13.3313C38.8831 14.9554 44.3916 13.0775 44.3916 13.0775C46.6254 13.0775 48.4649 13.311 49.9102 13.7068C50.355 10.9255 52.053 7.72807 53.4479 5.45431C47.7979 3.1907 40.8843 3.13993 39.7928 2.77451Z" fill="url(#paint1_linear_1817_3)"/>
<path d="M36.8617 33.5313C36.8617 33.5313 37.6703 34.8508 40.3994 34.7493C40.3994 34.7493 38.8831 39.6216 40.7025 40.4338C42.4714 41.2254 43.189 35.5715 43.2293 35.267C43.2293 35.2568 43.2293 35.2568 43.2293 35.2568V35.267C43.199 35.5411 42.6634 40.1394 43.9369 40.4338C45.2508 40.7382 45.7561 35.2568 45.7561 35.2568C45.7561 35.2568 45.6552 40.6367 47.5756 39.5201C49.4959 38.4035 48.182 32.3132 44.4423 28.4558C41.693 25.6137 37.9534 23.878 33.1827 24.4565C31.8485 29.0446 32.5054 32.2827 33.2635 34.1605C34.5269 33.7342 35.7297 33.4805 36.8617 33.5313Z" fill="url(#paint2_linear_1817_3)"/>
<path d="M33.1206 36.3247C33.2294 36.1354 33.1022 35.8569 32.8363 35.7028C32.5704 35.5487 32.2666 35.5771 32.1577 35.7664C32.0488 35.9558 32.1762 36.2342 32.4421 36.3885C32.708 36.5426 33.0118 36.5141 33.1206 36.3247Z" fill="#AAAABC"/>
<path d="M34.5356 36.2232C34.6445 36.034 34.5171 35.7554 34.2512 35.6013C33.9853 35.447 33.6815 35.4757 33.5728 35.6649C33.4639 35.8543 33.5913 36.1327 33.857 36.287C34.1229 36.4411 34.4267 36.4126 34.5356 36.2232Z" fill="#AAAABC"/>
<path d="M35.9506 36.1215C36.0594 35.9323 35.9322 35.6537 35.6664 35.4996C35.4005 35.3453 35.0967 35.374 34.9878 35.5632C34.8789 35.7526 35.0063 36.031 35.2721 36.1853C35.538 36.3394 35.8418 36.3109 35.9506 36.1215Z" fill="#04D361"/>
<path d="M25.3491 17.0464L26.6329 18.9954C26.7946 19.239 26.6227 19.574 26.3195 19.574C26.1375 19.574 26.0264 19.7769 26.1273 19.9292L27.6536 22.3045C27.694 22.3756 27.7648 22.406 27.8456 22.406H28.1793C28.3309 22.406 28.4724 22.4973 28.5229 22.6395C28.7049 23.0963 29.0989 24.1519 29.382 25.1061L29.1192 25.1975C29.1192 25.1975 28.6846 23.7154 28.3004 22.7816C28.2601 22.68 28.159 22.6293 28.0579 22.6395L27.7648 22.68C27.6233 22.7004 27.4817 22.6395 27.4009 22.5076L25.7333 19.8684C25.5816 19.6349 25.7333 19.3302 26.0061 19.2998L26.087 19.2897C26.2487 19.2694 26.3396 19.107 26.2689 18.9547L25.3491 17.0464Z" fill="#D7D7E1"/>
<path d="M26.7442 20.2035L27.7752 21.787C27.846 21.8885 27.9571 21.929 28.048 21.8885H28.0581C28.2097 21.8275 28.2603 21.6042 28.1592 21.4418L27.1181 19.8584C27.0676 19.7873 26.9968 19.7466 26.9261 19.7365C26.7239 19.7365 26.6128 20.0105 26.7442 20.2035Z" fill="#8157E4"/>
<defs>
<radialGradient id="paint0_radial_1817_3" cx="0" cy="0" r="1" gradientUnits="userSpaceOnUse" gradientTransform="translate(64.5098 28.2144) scale(83.8239 84.1834)">
<stop offset="0.2882" stop-color="#27272E"/>
<stop offset="1" stop-color="#121214"/>
</radialGradient>
<linearGradient id="paint1_linear_1817_3" x1="53.1802" y1="12.2761" x2="22.9343" y2="1.71788" gradientUnits="userSpaceOnUse">
<stop offset="0.3276" stop-color="#8157E4"/>
<stop offset="0.395" stop-color="#7D55DD"/>
<stop offset="0.495" stop-color="#724EC9"/>
<stop offset="0.615" stop-color="#6143A8"/>
<stop offset="0.7508" stop-color="#49347A"/>
<stop offset="0.8976" stop-color="#2A2141"/>
<stop offset="1" stop-color="#121214"/>
</linearGradient>
<linearGradient id="paint2_linear_1817_3" x1="52.7635" y1="26.9064" x2="25.6901" y2="37.932" gradientUnits="userSpaceOnUse">
<stop offset="0.3276" stop-color="#8157E4"/>
<stop offset="0.395" stop-color="#7D55DD"/>
<stop offset="0.495" stop-color="#724EC9"/>
<stop offset="0.615" stop-color="#6143A8"/>
<stop offset="0.7508" stop-color="#49347A"/>
<stop offset="0.8976" stop-color="#2A2141"/>
<stop offset="1" stop-color="#121214"/>
</linearGradient>
</defs>
</svg>
